<svg width="36" height="36" viewBox="0 0 36 36" fill="none" xmlns="http://www.w3.org/2000/svg">
<path d="M32.6137 32.0863C32.5148 31.9875 32.3807 31.9319 32.2408 31.9319C32.101 31.9319 31.9669 31.9875 31.868 32.0863L31.6884 32.2659L30.4253 31.0028L30.605 30.8231C30.7039 30.7242 30.7595 30.59 30.7595 30.4501C30.7595 30.3103 30.7039 30.1761 30.605 30.0772L29.1853 28.6583C29.1364 28.6093 29.0782 28.5705 29.0143 28.544C28.9503 28.5175 28.8817 28.5039 28.8124 28.5039C28.7432 28.5039 28.6746 28.5176 28.6106 28.5441C28.5467 28.5707 28.4886 28.6095 28.4396 28.6585C28.3408 28.7575 28.2852 28.8916 28.2853 29.0314C28.2853 29.1713 28.3409 29.3054 28.4398 29.4043L29.4864 30.4502L27.2186 32.718L23.9461 29.4454L26.2139 27.1782L26.6995 27.6639C26.7984 27.7628 26.9325 27.8183 27.0724 27.8183C27.2122 27.8183 27.3464 27.7628 27.4452 27.6639C27.5441 27.565 27.5997 27.4309 27.5997 27.291C27.5997 27.1512 27.5441 27.017 27.4452 26.9182L26.5867 26.0596C26.5378 26.0107 26.4796 25.9718 26.4157 25.9453C26.3517 25.9188 26.2831 25.9051 26.2139 25.9051C26.1446 25.9051 26.076 25.9188 26.0121 25.9453C25.9481 25.9718 25.89 26.0107 25.841 26.0596L25.6616 26.2391L24.8291 25.4066C24.3465 24.9241 23.5613 24.924 23.0788 25.4066L22.9997 25.4857L22.354 24.84C22.8202 23.7848 23.1253 22.6656 23.259 21.5198L24.0066 21.2719C25.0358 20.9307 25.7791 20.0532 25.9465 18.9819L26.2831 16.8284C26.3229 16.5741 26.3072 16.3142 26.2369 16.0665C26.1667 15.8189 26.0436 15.5894 25.8761 15.3939C25.6528 15.1331 25.3589 14.9423 25.0297 14.8447C24.9764 14.1634 24.8071 13.4962 24.5291 12.872V12.3891C24.5291 8.86936 22.6563 5.77919 19.8552 4.06174C19.3224 1.69411 17.2204 0 14.7682 0C12.3187 0 10.2188 1.69038 9.68312 4.05387C9.03032 4.4539 8.42653 4.92888 7.88403 5.46912C7.78709 5.56823 7.73307 5.70152 7.73366 5.84015C7.73425 5.97879 7.7894 6.11162 7.88718 6.2099C7.98496 6.30818 8.11751 6.364 8.25614 6.3653C8.39477 6.3666 8.52834 6.31325 8.62794 6.21682C9.15576 5.69107 9.74855 5.23487 10.3919 4.8593C10.4098 4.85016 10.4272 4.84017 10.4439 4.82913C11.7462 4.08164 13.2269 3.68304 14.7683 3.68304C19.1563 3.68304 22.7959 6.94638 23.3891 11.1736C23.3582 11.1414 23.3282 11.1083 23.2965 11.0769C21.6978 9.49078 18.9204 7.60001 14.7681 7.60001C10.6158 7.60001 7.83847 9.49078 6.23977 11.0769C6.20841 11.108 6.17888 11.1406 6.1483 11.1724C6.30256 10.0756 6.66327 9.01519 7.21543 8.055C7.28514 7.93376 7.30383 7.78979 7.2674 7.65477C7.23097 7.51974 7.14239 7.40472 7.02116 7.335C6.96113 7.30047 6.89488 7.27811 6.82621 7.26919C6.75753 7.26027 6.68777 7.26496 6.62091 7.283C6.55405 7.30104 6.4914 7.33207 6.43654 7.37433C6.38167 7.41659 6.33567 7.46924 6.30116 7.52927C5.4548 9.00091 5.00755 10.6815 5.00755 12.3892V12.8713C4.72933 13.4958 4.55992 14.1633 4.50664 14.8449C4.17741 14.9425 3.88344 15.1332 3.66015 15.3941C3.49267 15.5896 3.36956 15.819 3.2993 16.0667C3.22905 16.3143 3.21331 16.5742 3.25318 16.8285L3.58969 18.9821C3.75711 20.0533 4.50045 20.9308 5.52962 21.2721L6.27823 21.5203C6.39305 22.503 6.63261 23.4662 6.9938 24.3848C7.04502 24.5149 7.14582 24.6194 7.27405 24.6753C7.40227 24.7311 7.54743 24.7337 7.67759 24.6826C7.80775 24.6314 7.91224 24.5306 7.96808 24.4023C8.02392 24.2741 8.02654 24.1289 7.97537 23.9988C7.6329 23.1273 7.40959 22.2135 7.31148 21.2823L6.69955 15.5055C7.39726 14.8967 10.1693 12.7651 14.768 12.7651C19.3688 12.7651 22.1413 14.8985 22.8369 15.5057L22.225 21.2822C22.1251 22.226 21.8974 23.1519 21.5481 24.0344L20.5034 22.9897C20.4045 22.8908 20.2704 22.8352 20.1306 22.8352C19.9907 22.8352 19.8566 22.8908 19.7577 22.9897C19.6588 23.0885 19.6033 23.2227 19.6033 23.3625C19.6033 23.5024 19.6588 23.6365 19.7577 23.7354L21.0783 25.056C20.4902 26.1719 19.7052 27.1722 18.761 28.0086L16.7507 29.7897C16.204 30.2742 15.4987 30.5417 14.7682 30.5416C14.0377 30.5417 13.3324 30.2742 12.7857 29.7896L10.7757 28.0088C10.1284 27.4351 9.55482 26.7831 9.0683 26.0679C8.98929 25.9533 8.86814 25.8745 8.73128 25.8489C8.59442 25.8232 8.45297 25.8527 8.33779 25.931C8.22261 26.0092 8.14304 26.1298 8.11646 26.2665C8.08987 26.4032 8.11841 26.5448 8.19587 26.6605C8.7316 27.4482 9.36316 28.1661 10.076 28.798L10.1778 28.8882C10.1451 29.6544 10.0419 30.8667 9.72207 31.8254C9.12181 33.6262 7.97509 35.1283 7.95828 35.1502C7.91595 35.205 7.88482 35.2676 7.86668 35.3344C7.84854 35.4013 7.84374 35.471 7.85256 35.5397C7.86137 35.6084 7.88364 35.6747 7.91807 35.7348C7.9525 35.7949 7.99843 35.8476 8.05324 35.8899C8.16392 35.9754 8.30404 36.0135 8.44277 35.9956C8.58149 35.9778 8.70746 35.9057 8.79296 35.795C8.8445 35.7282 10.0627 34.1388 10.7226 32.159C10.976 31.3994 11.1075 30.517 11.1756 29.7721L12.0865 30.5792C12.8261 31.2346 13.7801 31.5964 14.7683 31.5962C15.2586 31.5965 15.7449 31.5073 16.2033 31.3331C16.6612 31.1594 17.0837 30.9039 17.4503 30.579L18.3607 29.7724C18.4287 30.5172 18.5602 31.3994 18.8135 32.159C19.4735 34.1388 20.6917 35.7283 20.7433 35.795C20.7925 35.8588 20.8558 35.9105 20.9281 35.946C21.0005 35.9815 21.0801 35.9999 21.1607 35.9998C21.2592 35.9997 21.3557 35.972 21.4393 35.9199C21.5229 35.8678 21.5902 35.7933 21.6336 35.7049C21.6771 35.6165 21.6949 35.5177 21.685 35.4197C21.6752 35.3217 21.6381 35.2284 21.578 35.1503C21.5665 35.1354 20.4158 33.6304 19.8141 31.8253C19.4944 30.8668 19.3912 29.6547 19.3583 28.8885L19.4606 28.7979C20.418 27.9496 21.2275 26.9477 21.8558 25.8334L22.2537 26.2313L22.1746 26.3105C21.6921 26.7931 21.6921 27.5782 22.1746 28.0607L23.0067 28.8929L22.8271 29.0724C22.7781 29.1213 22.7393 29.1795 22.7127 29.2435C22.6862 29.3074 22.6726 29.376 22.6726 29.4453C22.6726 29.5146 22.6862 29.5831 22.7127 29.6471C22.7393 29.7111 22.7781 29.7692 22.8271 29.8182L26.8455 33.8366C26.8944 33.8855 26.9526 33.9244 27.0165 33.9509C27.0805 33.9774 27.1491 33.9911 27.2184 33.9911C27.2876 33.9911 27.3562 33.9774 27.4202 33.9509C27.4841 33.9244 27.5423 33.8855 27.5912 33.8366L27.7708 33.657L29.0339 34.92L28.8543 35.0996C28.7806 35.1733 28.7304 35.2673 28.71 35.3696C28.6897 35.4719 28.7001 35.5779 28.74 35.6742C28.7799 35.7706 28.8475 35.853 28.9342 35.9109C29.0209 35.9688 29.1229 35.9998 29.2272 35.9998C29.2964 35.9999 29.365 35.9863 29.429 35.9598C29.493 35.9333 29.5511 35.8944 29.6 35.8453L32.6134 32.8319C32.6624 32.783 32.7013 32.7249 32.7279 32.661C32.7544 32.597 32.7681 32.5284 32.7681 32.4592C32.7682 32.3899 32.7545 32.3214 32.728 32.2574C32.7015 32.1934 32.6627 32.1353 32.6137 32.0863ZM11.0409 3.36234C11.3853 2.66847 11.9168 2.0847 12.5754 1.67692C13.2341 1.26915 13.9936 1.05363 14.7682 1.05469C15.5443 1.05361 16.3052 1.26994 16.9646 1.67916C17.6241 2.08837 18.1557 2.67411 18.4993 3.37001C17.3493 2.89252 16.0891 2.62821 14.7684 2.62821C13.4687 2.62828 12.2075 2.8807 11.0409 3.36234ZM25.241 16.6656L24.9045 18.8191C24.7984 19.4982 24.3272 20.0545 23.6747 20.2709L23.3825 20.3678L23.8638 15.8251H24.5217C24.7347 15.8251 24.9363 15.9179 25.0748 16.0798C25.1432 16.1596 25.1935 16.2533 25.2222 16.3544C25.2509 16.4556 25.2573 16.5617 25.241 16.6656ZM4.63187 18.8191L4.29535 16.6656C4.27906 16.5617 4.28548 16.4556 4.31418 16.3545C4.34288 16.2533 4.39316 16.1596 4.46157 16.0798C4.52989 15.9999 4.61471 15.9357 4.71021 15.8918C4.8057 15.8478 4.90959 15.825 5.01472 15.8251H5.67291L6.15413 20.3678L5.86163 20.2709C5.2092 20.0545 4.73797 19.4982 4.63187 18.8191ZM5.93651 14.7704H5.57089C5.69218 13.6616 6.19168 12.6102 6.98269 11.8254C8.44069 10.3789 10.975 8.65455 14.7682 8.65455C18.5614 8.65455 21.0957 10.3789 22.5537 11.8254C23.3447 12.6102 23.8442 13.6616 23.9655 14.7704H23.5999C22.8785 14.1134 19.8892 11.7103 14.7682 11.7103C9.64719 11.7103 6.65792 14.1134 5.93651 14.7704ZM22.9206 27.3151C22.8863 27.2807 22.8671 27.2342 22.8671 27.1857C22.8671 27.1372 22.8863 27.0907 22.9206 27.0563L23.8245 26.1524C23.8588 26.1181 23.9054 26.0989 23.9539 26.0989C24.0024 26.0989 24.0489 26.1181 24.0833 26.1524L24.9156 26.9847L23.7527 28.1474L22.9206 27.3151ZM28.5168 32.9114L29.6796 31.7486L30.9426 33.0117L29.7798 34.1745L28.5168 32.9114Z" fill="url(#paint0_linear_228_32)"/>
<defs>
<linearGradient id="paint0_linear_228_32" x1="15.8561" y1="0" x2="15.8561" y2="35.9999" gradientUnits="userSpaceOnUse">
<stop stop-color="#56B5B3"/>
<stop offset="1" stop-color="#1F7876"/>
</linearGradient>
</defs>
</svg>

